HIERARCHY
ROOT hip
{
  OFFSET 5.18325 78.3147 234.976
  CHANNELS 6 Xposition Yposition Zposition Zrotation Xrotation Yrotation
  JOINT abdomen
  {
    OFFSET 0 20.6881 -0.73152
    CHANNELS 3 Zrotation Xrotation Yrotation
    JOINT chest
    {
      OFFSET 0 11.7043 -0.48768
      CHANNELS 3 Zrotation Xrotation Yrotation
      JOINT neck
      {
        OFFSET 0 22.1894 -2.19456
        CHANNELS 3 Zrotation Xrotation Yrotation
        JOINT head
        {
          OFFSET -0.24384 7.07133 1.2192
          CHANNELS 3 Zrotation Xrotation Yrotation
          JOINT leftEye
          {
            OFFSET 4.14528 8.04674 8.04672
            CHANNELS 3 Zrotation Xrotation Yrotation
            End Site
            {
              OFFSET 1 0 0
            }
          }
          JOINT rightEye
          {
            OFFSET -3.6576 8.04674 8.04672
            CHANNELS 3 Zrotation Xrotation Yrotation
            End Site
            {
              OFFSET 1 0 0
            }
          }
        }
      }
      JOINT rCollar
      {
        OFFSET -2.68224 19.2634 -4.8768
        CHANNELS 3 Zrotation Xrotation Yrotation
        JOINT rShldr
        {
          OFFSET -8.77824 -1.95073 1.46304
          CHANNELS 3 Zrotation Xrotation Yrotation
          JOINT rForeArm
          {
            OFFSET -28.1742 -1.7115 0.48768
            CHANNELS 3 Zrotation Xrotation Yrotation
            JOINT rHand
            {
              OFFSET -22.5879 0.773209 7.07136
              CHANNELS 3 Zrotation Xrotation Yrotation
              JOINT rThumb1
              {
                OFFSET -1.2192 -0.487915 3.41376
                CHANNELS 3 Zrotation Xrotation Yrotation
                JOINT rThumb2
                {
                  OFFSET -3.37035 -0.52449 3.41376
                  CHANNELS 3 Zrotation Xrotation Yrotation
                  End Site
                  {
                    OFFSET -1.78271 -1.18214 1.43049
                  }
                }
              }
              JOINT rIndex1
              {
                OFFSET -7.75947 0.938293 5.60832
                CHANNELS 3 Zrotation Xrotation Yrotation
                JOINT rIndex2
                {
                  OFFSET -2.54057 -0.884171 1.56538
                  CHANNELS 3 Zrotation Xrotation Yrotation
                  End Site
                  {
                    OFFSET -1.62519 -0.234802 1.16502
                  }
                }
              }
              JOINT rMid1
              {
                OFFSET -8.24714 1.18213 3.41376
                CHANNELS 3 Zrotation Xrotation Yrotation
                JOINT rMid2
                {
                  OFFSET -3.10165 -0.590103 1.0647
                  CHANNELS 3 Zrotation Xrotation Yrotation
                  End Site
                  {
                    OFFSET -2.48547 -0.328903 0.83742
                  }
                }
              }
              JOINT rRing1
              {
                OFFSET -8.82822 0.546677 1.51678
                CHANNELS 3 Zrotation Xrotation Yrotation
                JOINT rRing2
                {
                  OFFSET -2.60934 -0.819778 -0.0198488
                  CHANNELS 3 Zrotation Xrotation Yrotation
                  End Site
                  {
                    OFFSET -2.33842 -0.294052 0.168128
                  }
                }
              }
              JOINT rPinky1
              {
                OFFSET -8.27202 -0.0477905 -0.4584
                CHANNELS 3 Zrotation Xrotation Yrotation
                JOINT rPinky2
                {
                  OFFSET -1.82734 -0.647385 -0.700984
                  CHANNELS 3 Zrotation Xrotation Yrotation
                  End Site
                  {
                    OFFSET -1.69225 -0.51767 -0.607171
                  }
                }
              }
            }
          }
        }
      }
      JOINT lCollar
      {
        OFFSET 2.68224 19.2634 -4.8768
        CHANNELS 3 Zrotation Xrotation Yrotation
        JOINT lShldr
        {
          OFFSET 8.77824 -1.95073 1.46304
          CHANNELS 3 Zrotation Xrotation Yrotation
          JOINT lForeArm
          {
            OFFSET 28.1742 -1.7115 0.48768
            CHANNELS 3 Zrotation Xrotation Yrotation
            JOINT lHand
            {
              OFFSET 22.5879 0.773209 7.07136
              CHANNELS 3 Zrotation Xrotation Yrotation
              JOINT lThumb1
              {
                OFFSET 1.2192 -0.487915 3.41376
                CHANNELS 3 Zrotation Xrotation Yrotation
                JOINT lThumb2
                {
                  OFFSET 3.37035 -0.52449 3.41376
                  CHANNELS 3 Zrotation Xrotation Yrotation
                  End Site
                  {
                    OFFSET 1.78271 -1.18214 1.43049
                  }
                }
              }
              JOINT lIndex1
              {
                OFFSET 7.75947 0.938293 5.60832
                CHANNELS 3 Zrotation Xrotation Yrotation
                JOINT lIndex2
                {
                  OFFSET 2.54057 -0.884171 1.56538
                  CHANNELS 3 Zrotation Xrotation Yrotation
                  End Site
                  {
                    OFFSET 1.62519 -0.234802 1.16502
                  }
                }
              }
              JOINT lMid1
              {
                OFFSET 8.24714 1.18213 3.41376
                CHANNELS 3 Zrotation Xrotation Yrotation
                JOINT lMid2
                {
                  OFFSET 3.10165 -0.590103 1.0647
                  CHANNELS 3 Zrotation Xrotation Yrotation
                  End Site
                  {
                    OFFSET 2.48547 -0.328903 0.83742
                  }
                }
              }
              JOINT lRing1
              {
                OFFSET 8.82822 0.546677 1.51678
                CHANNELS 3 Zrotation Xrotation Yrotation
                JOINT lRing2
                {
                  OFFSET 2.60934 -0.819778 -0.0198488
                  CHANNELS 3 Zrotation Xrotation Yrotation
                  End Site
                  {
                    OFFSET 2.33842 -0.294052 0.168128
                  }
                }
              }
              JOINT lPinky1
              {
                OFFSET 8.27202 -0.0477905 -0.4584
                CHANNELS 3 Zrotation Xrotation Yrotation
                JOINT lPinky2
                {
                  OFFSET 1.82734 -0.647385 -0.700984
                  CHANNELS 3 Zrotation Xrotation Yrotation
                  End Site
                  {
                    OFFSET 1.69225 -0.51767 -0.607171
                  }
                }
              }
            }
          }
        }
      }
    }
  }
  JOINT rButtock
  {
    OFFSET -8.77824 4.35084 1.2192
    CHANNELS 3 Zrotation Xrotation Yrotation
    JOINT rThigh
    {
      OFFSET 0 -1.70687 -2.19456
      CHANNELS 3 Zrotation Xrotation Yrotation
      JOINT rShin
      {
        OFFSET 0 -36.8199 0.73152
        CHANNELS 3 Zrotation Xrotation Yrotation
        JOINT rFoot
        {
          OFFSET 0.73152 -45.1104 -5.12064
          CHANNELS 3 Zrotation Xrotation Yrotation
          End Site
          {
            OFFSET -1.1221 -3.69964 12.103
          }
        }
      }
    }
  }
  JOINT lButtock
  {
    OFFSET 8.77824 4.35084 1.2192
    CHANNELS 3 Zrotation Xrotation Yrotation
    JOINT lThigh
    {
      OFFSET 0 -1.70687 -2.19456
      CHANNELS 3 Zrotation Xrotation Yrotation
      JOINT lShin
      {
        OFFSET 0 -36.8199 0.73152
        CHANNELS 3 Zrotation Xrotation Yrotation
        JOINT lFoot
        {
          OFFSET -0.73152 -45.1104 -5.12064
          CHANNELS 3 Zrotation Xrotation Yrotation
          End Site
          {
            OFFSET 1.1221 -3.69964 12.103
          }
        }
      }
    }
  }
}
MOTION
Frames:	5
Frame Time:	0.00833333
27.6801 83.1347 -103.56 -9.69078 21.1686 24.9724 5.52053 -24.8902 -9.87472 -1.61744 8.38822 -2.91233 -1.74751 1.89453 -1.40607 11.5799 16.8419 -3.8912 -0 0 0 -0 0 0 -2.47653e-013 -2.17868e-013 -5.83532e-013 56.0166 -21.0308 -9.76919 -9.12114 -3.62411 16.1633 -0.0582386 -6.87005 -0.970223 -1.17208e-009 -1.59858e-009 -3.17376e-009 -2.0136e-009 -2.76904e-009 -5.4967e-009 -1.17208e-009 -1.59858e-009 -3.17376e-009 7.73091 5.47488 0.417314 -1.17208e-009 -1.59859e-009 -3.17376e-009 2.90554 0.965183 0.102902 -1.17207e-009 -1.59859e-009 -3.17376e-009 10.2786 0.731801 0.0259123 -1.17208e-009 -1.59858e-009 -3.17375e-009 2.22167 -0.733487 -0.20892 -2.47735e-013 -2.17868e-013 -5.8388e-013 -65.4165 18.9755 -11.1396 16.2613 -8.93231 -30.2262 3.36606 -45.0744 8.1003 1.54869e-009 4.51453e-009 -4.96039e-009 2.83979e-009 7.88844e-009 -8.49778e-009 1.54869e-009 4.51455e-009 -4.96037e-009 -7.73091 5.47488 -0.417314 1.54869e-009 4.51454e-009 -4.96038e-009 -2.90554 0.965183 -0.102902 1.54868e-009 4.51454e-009 -4.96038e-009 -10.2786 0.731801 -0.0259123 1.54869e-009 4.51454e-009 -4.96039e-009 -2.22167 -0.733487 0.20892 -2.03217e-016 0 -3.88251e-019 21.8828 -30.608 51.6104 -0.270213 37.3372 0.997727 -2.73309 7.98693 36.9859 2.03217e-016 0 3.88251e-019 -25.121 -54.3941 -45.1824 0.195968 35.4654 0.138056 -0.158814 -8.74934 -7.08558 
27.8139 83.1519 -103.354 -9.53067 21.2544 24.4177 5.44614 -24.9235 -10.0305 -1.53277 8.40869 -2.958 -1.64926 1.87962 -1.26916 11.3199 16.9611 -3.63224 -0 0 0 -0 0 0 -2.75166e-013 -5.26404e-014 -5.02882e-013 56.3675 -22.2027 -9.98533 -9.18242 -3.65909 16.2769 -0.068691 -7.45255 -1.05339 -1.79609e-009 -1.01727e-009 -3.79687e-009 -3.08836e-009 -1.76275e-009 -6.57665e-009 -1.79609e-009 -1.01727e-009 -3.79687e-009 7.73091 5.47488 0.417314 -1.79609e-009 -1.01727e-009 -3.79687e-009 2.90554 0.965183 0.102902 -1.79609e-009 -1.01727e-009 -3.79687e-009 10.2786 0.731801 0.0259123 -1.7961e-009 -1.01726e-009 -3.79686e-009 2.22167 -0.733487 -0.20892 -2.7523e-013 -5.26409e-014 -5.03215e-013 -65.3926 19.1009 -11.3539 16.688 -9.34309 -31.1364 3.41436 -45.3109 8.16814 1.84027e-009 5.00339e-009 -5.15771e-009 3.35087e-009 8.73141e-009 -8.82985e-009 1.84027e-009 5.0034e-009 -5.1577e-009 -7.73091 5.47488 -0.417314 1.84027e-009 5.00339e-009 -5.15771e-009 -2.90554 0.965183 -0.102902 1.84026e-009 5.00339e-009 -5.15771e-009 -10.2786 0.731801 -0.0259123 1.84027e-009 5.00339e-009 -5.15772e-009 -2.22167 -0.733487 0.20892 -2.03217e-016 0 -3.88251e-019 21.7308 -30.4652 51.5109 -0.266265 37.1633 1.00512 -3.14959 8.54097 37.263 2.03217e-016 0 3.88251e-019 -25.1025 -54.3035 -45.2261 0.184555 35.0974 0.157847 -0.145442 -8.59212 -7.29023 
27.9475 83.1678 -103.117 -9.35121 21.2829 23.8158 5.38761 -24.9083 -10.1353 -1.45792 8.43811 -2.99042 -1.53609 1.86355 -1.13232 11.06 17.0837 -3.37632 -0 0 0 -0 0 0 -2.29779e-013 2.12402e-013 -3.62468e-013 56.7642 -23.4123 -10.1881 -9.24127 -3.69288 16.386 -0.079207 -8.00944 -1.13308 -2.86646e-009 -1.02872e-010 -4.53329e-009 -4.93272e-009 -1.79737e-010 -7.85339e-009 -2.86646e-009 -1.02872e-010 -4.53329e-009 7.73091 5.47488 0.417314 -2.86645e-009 -1.02876e-010 -4.53329e-009 2.90554 0.965183 0.102902 -2.86645e-009 -1.02872e-010 -4.53329e-009 10.2786 0.731801 0.0259123 -2.86646e-009 -1.0287e-010 -4.53328e-009 2.22167 -0.733487 -0.20892 -2.29817e-013 2.12401e-013 -3.62751e-013 -65.3547 19.2606 -11.5516 17.1097 -9.76168 -32.0492 3.45161 -45.492 8.22038 1.86107e-009 4.92501e-009 -4.56294e-009 3.36989e-009 8.58131e-009 -7.806e-009 1.86107e-009 4.92502e-009 -4.56292e-009 -7.73091 5.47488 -0.417314 1.86107e-009 4.92501e-009 -4.56293e-009 -2.90554 0.965183 -0.102902 1.86106e-009 4.92501e-009 -4.56294e-009 -10.2786 0.731801 -0.0259123 1.86107e-009 4.92501e-009 -4.56294e-009 -2.22167 -0.733487 0.20892 -2.03217e-016 0 -3.88251e-019 21.5799 -30.2277 51.409 -0.261918 36.9596 1.01125 -3.59781 9.11599 37.5339 2.03217e-016 0 3.88251e-019 -24.9924 -54.1407 -45.2045 0.174115 34.7718 0.175516 -0.118375 -8.39791 -7.44053 
28.0773 83.1796 -102.865 -9.17863 21.299 23.2138 5.328 -24.8861 -10.23 -1.38028 8.47068 -3.02072 -1.41587 1.84153 -0.994378 10.7973 17.2054 -3.11863 -0 0 0 -0 0 0 -1.53403e-013 4.60299e-013 -1.8966e-013 57.1972 -24.6128 -10.356 -9.2925 -3.72239 16.4811 -0.0895673 -8.51749 -1.206 -3.79179e-009 8.02124e-010 -5.00349e-009 -6.52781e-009 1.38704e-009 -8.66885e-009 -3.79179e-009 8.02124e-010 -5.00349e-009 7.73091 5.47488 0.417314 -3.79179e-009 8.02119e-010 -5.00349e-009 2.90554 0.965183 0.102902 -3.79179e-009 8.02125e-010 -5.00349e-009 10.2786 0.731801 0.0259123 -3.7918e-009 8.02125e-010 -5.00349e-009 2.22167 -0.733487 -0.20892 -1.53424e-013 4.60298e-013 -1.89888e-013 -65.3131 19.4306 -11.7379 17.5204 -10.1811 -32.9513 3.47026 -45.5829 8.2466 1.69426e-009 4.39111e-009 -3.55326e-009 3.05139e-009 7.63742e-009 -6.07291e-009 1.69426e-009 4.39111e-009 -3.55324e-009 -7.73091 5.47488 -0.417314 1.69426e-009 4.39111e-009 -3.55326e-009 -2.90554 0.965183 -0.102902 1.69425e-009 4.39111e-009 -3.55326e-009 -10.2786 0.731801 -0.0259123 1.69426e-009 4.3911e-009 -3.55327e-009 -2.22167 -0.733487 0.20892 -2.03217e-016 0 -3.88251e-019 21.4453 -29.9775 51.3084 -0.257579 36.762 1.01783 -4.05871 9.6906 37.8021 2.03217e-016 0 3.88251e-019 -24.8453 -53.9638 -45.1394 0.165099 34.4925 0.1912 -0.0825208 -8.14907 -7.57201 
28.1929 83.1824 -102.633 -9.03708 21.3491 22.6581 5.24998 -24.8981 -10.3557 -1.28726 8.50061 -3.06002 -1.29644 1.8088 -0.854126 10.529 17.3216 -2.8544 -0 0 0 -0 0 0 -8.79539e-014 5.74091e-013 -1.18277e-014 57.6597 -25.7583 -10.4654 -9.33092 -3.74453 16.5525 -0.0993405 -8.95347 -1.26878 -3.98074e-009 1.35525e-009 -4.82795e-009 -6.85481e-009 2.3446e-009 -8.36497e-009 -3.98074e-009 1.35525e-009 -4.82795e-009 7.73091 5.47488 0.417314 -3.98074e-009 1.35525e-009 -4.82795e-009 2.90554 0.965183 0.102902 -3.98073e-009 1.35525e-009 -4.82794e-009 10.2786 0.731801 0.0259123 -3.98074e-009 1.35525e-009 -4.82795e-009 2.22167 -0.733487 -0.20892 -8.79763e-014 5.74089e-013 -1.20265e-014 -65.2779 19.5867 -11.9182 17.9146 -10.5951 -33.8289 3.46284 -45.5486 8.23642 1.42299e-009 3.51336e-009 -2.5059e-009 2.54993e-009 6.09904e-009 -4.27723e-009 1.42299e-009 3.51336e-009 -2.50588e-009 -7.73091 5.47488 -0.417314 1.42299e-009 3.51336e-009 -2.5059e-009 -2.90554 0.965183 -0.102902 1.42298e-009 3.51336e-009 -2.5059e-009 -10.2786 0.731801 -0.0259123 1.42299e-009 3.51336e-009 -2.50591e-009 -2.22167 -0.733487 0.20892 -2.03217e-016 0 -3.88251e-019 21.3414 -29.7963 51.2114 -0.253645 36.6065 1.02659 -4.51298 10.2435 38.0703 2.03217e-016 0 3.88251e-019 -24.715 -53.8309 -45.0516 0.157969 34.2634 0.205029 -0.0421537 -7.82799 -7.72019 
